<?xml version="1.0" encoding="iso-8859-1"?>
<!-- Uploaded to: SVG Repo, www.svgrepo.com, Generator: SVG Repo Mixer Tools -->
<svg height="800px" width="800px" version="1.1" id="Layer_1" xmlns="http://www.w3.org/2000/svg" xmlns:xlink="http://www.w3.org/1999/xlink" 
	 viewBox="0 0 496 496" xml:space="preserve">
<g>
	<path style="fill:#1083DD;" d="M395.12,192.296h0.008H395.12z"/>
	<path style="fill:#1083DD;" d="M248,283.864L248,283.864L248,283.864z"/>
	<polygon style="fill:#1083DD;" points="248.304,302.328 146.872,387.984 104,359.144 104,391.464 248,479.848 392,391.464 
		392,359.144 349.448,387.984 	"/>
</g>
<polyline style="fill:#0A6CBC;" points="248,479.848 392,391.464 392,359.144 349.448,387.984 248.304,302.328 "/>
<polygon style="fill:#1083DD;" points="248,283.864 100.888,192.312 0,273.744 145.912,369.752 248,283.864 "/>
<polyline style="fill:#0A6CBC;" points="0,273.744 145.912,369.752 248,283.864 248,283.864 248,283.864 "/>
<polygon style="fill:#38B4F9;" points="248,283.864 248,283.864 350.104,369.752 496,273.752 395.128,192.296 395.12,192.296 "/>
<polyline style="fill:#0594DB;" points="350.104,369.752 496,273.752 395.128,192.296 395.12,192.296 "/>
<polygon style="fill:#1083DD;" points="350.104,16.152 248.016,103.352 248.016,103.352 248,103.352 395.128,192.296 
	395.128,192.296 395.128,192.296 494.44,111.848 "/>
<polyline style="fill:#0A6CBC;" points="395.128,192.296 395.128,192.296 395.128,192.296 496,111.848 350.104,16.152 "/>
<polygon style="fill:#38B4F9;" points="248.016,103.352 145.912,16.152 0.016,111.52 100.888,193.92 248,103.352 248,103.352 "/>
<polyline style="fill:#0594DB;" points="100.888,193.6 248,103.352 248,103.352 248.016,103.352 145.912,16.152 "/>
</svg>