<svg width="494" height="216" viewBox="0 0 494 216" fill="none" xmlns="http://www.w3.org/2000/svg">
<path d="M12.25 147C10.7083 147 9.58333 146.646 8.875 145.938C8.16667 145.229 7.8125 144.104 7.8125 142.562V72.5625C7.8125 71.3542 8.35417 70.4583 9.4375 69.875C10.5208 69.25 12.2083 68.9375 14.5 68.9375H18.25C20.5417 68.9375 22.2292 69.25 23.3125 69.875C24.3958 70.4583 24.9375 71.3542 24.9375 72.5625V132.438H49.6875C50.8542 132.438 51.6875 132.875 52.1875 133.75C52.7292 134.625 53 136.021 53 137.938V141.438C53 143.396 52.7292 144.812 52.1875 145.688C51.6875 146.562 50.8542 147 49.6875 147H12.25ZM85.5625 147.938C76.7708 147.938 70.0625 145.354 65.4375 140.188C60.8542 135.021 58.5625 127.583 58.5625 117.875C58.5625 108.208 60.8542 100.812 65.4375 95.6875C70.0625 90.5625 76.7708 88 85.5625 88C94.3542 88 101.021 90.5625 105.562 95.6875C110.146 100.771 112.438 108.167 112.438 117.875C112.438 127.583 110.146 135.021 105.562 140.188C101.021 145.354 94.3542 147.938 85.5625 147.938ZM85.5625 134.875C89.0625 134.875 91.625 133.458 93.25 130.625C94.9167 127.792 95.75 123.542 95.75 117.875C95.75 112.25 94.9167 108.021 93.25 105.188C91.625 102.354 89.0625 100.938 85.5625 100.938C78.6458 100.938 75.1875 106.583 75.1875 117.875C75.1875 123.5 76.0208 127.75 77.6875 130.625C79.3958 133.458 82.0208 134.875 85.5625 134.875ZM146.25 170.562C128.625 170.562 119.812 165.438 119.812 155.188C119.812 152.312 120.667 149.771 122.375 147.562C124.125 145.354 126.646 143.604 129.938 142.312L130 141.875C128.5 141.083 127.333 139.958 126.5 138.5C125.667 137.042 125.25 135.396 125.25 133.562C125.25 131.688 125.812 129.958 126.938 128.375C128.104 126.792 129.771 125.438 131.938 124.312C129.104 122.729 126.875 120.562 125.25 117.812C123.667 115.062 122.875 111.708 122.875 107.75C122.875 101 125.062 96.0208 129.438 92.8125C133.854 89.6042 139.646 88 146.812 88C149.812 88 152.667 88.2917 155.375 88.875H173.25C174.417 88.875 175.271 89.3333 175.812 90.25C176.354 91.125 176.625 92.5208 176.625 94.4375V96.3125C176.625 99.8125 175.729 101.562 173.938 101.562C173.312 101.562 172.458 101.521 171.375 101.438C170.333 101.354 169.583 101.25 169.125 101.125L168.938 101.562C169.438 102.229 169.854 103.167 170.188 104.375C170.521 105.542 170.688 106.667 170.688 107.75C170.688 114.375 168.604 119.312 164.438 122.562C160.271 125.771 154.812 127.375 148.062 127.375C143.521 127.375 141.25 128.396 141.25 130.438C141.25 131.354 141.708 132.083 142.625 132.625C143.542 133.125 144.708 133.521 146.125 133.812C147.583 134.104 149.646 134.417 152.312 134.75C154.229 134.958 156.021 135.208 157.688 135.5C162.938 136.542 167.125 138.25 170.25 140.625C173.375 142.958 174.938 146.646 174.938 151.688C174.938 155.479 173.75 158.792 171.375 161.625C169 164.458 165.646 166.646 161.312 168.188C156.979 169.771 151.958 170.562 146.25 170.562ZM146.812 115.562C149.271 115.562 151.271 114.917 152.812 113.625C154.396 112.333 155.188 110.375 155.188 107.75C155.188 105.125 154.396 103.167 152.812 101.875C151.271 100.542 149.271 99.875 146.812 99.875C144.354 99.875 142.333 100.542 140.75 101.875C139.208 103.167 138.438 105.125 138.438 107.75C138.438 110.375 139.208 112.333 140.75 113.625C142.333 114.917 144.354 115.562 146.812 115.562ZM147.5 157.562C151.25 157.562 154.083 157.083 156 156.125C157.958 155.167 158.938 153.833 158.938 152.125C158.938 150.958 158.375 150.021 157.25 149.312C156.167 148.646 154.396 148.083 151.938 147.625C149.521 147.208 146.125 146.854 141.75 146.562C139.875 147.229 138.417 148.104 137.375 149.188C136.333 150.271 135.812 151.396 135.812 152.562C135.812 154.146 136.771 155.375 138.688 156.25C140.604 157.125 143.542 157.562 147.5 157.562Z" fill="black"/>
<path d="M338.5 147C336.958 147 335.833 146.646 335.125 145.938C334.417 145.229 334.062 144.104 334.062 142.562V73.625C334.062 72.0833 334.417 70.9792 335.125 70.3125C335.833 69.6042 336.958 69.25 338.5 69.25H360.5C369.5 69.25 376.125 71 380.375 74.5C384.625 77.9583 386.75 82.75 386.75 88.875C386.75 92.5417 385.604 95.9167 383.312 99C381.021 102.083 378.146 104.333 374.688 105.75L374.812 106.188C377.729 106.771 380.312 107.958 382.562 109.75C384.854 111.542 386.625 113.729 387.875 116.312C389.167 118.896 389.812 121.604 389.812 124.438C389.812 131.729 387.5 137.312 382.875 141.188C378.25 145.062 371.312 147 362.062 147H338.5ZM358.812 100.188C362.062 100.188 364.583 99.4167 366.375 97.875C368.208 96.2917 369.125 94.2917 369.125 91.875C369.125 86.375 365.75 83.625 359 83.625H351.188V100.188H358.812ZM362.062 132.438C365.271 132.438 367.771 131.667 369.562 130.125C371.354 128.542 372.25 126.312 372.25 123.438C372.25 120.604 371.208 118.458 369.125 117C367.083 115.542 364.125 114.812 360.25 114.812H351.188V132.438H362.062ZM423.938 147.938C415.146 147.938 408.438 145.354 403.812 140.188C399.229 135.021 396.938 127.583 396.938 117.875C396.938 108.208 399.229 100.812 403.812 95.6875C408.438 90.5625 415.146 88 423.938 88C432.729 88 439.396 90.5625 443.938 95.6875C448.521 100.771 450.812 108.167 450.812 117.875C450.812 127.583 448.521 135.021 443.938 140.188C439.396 145.354 432.729 147.938 423.938 147.938ZM423.938 134.875C427.438 134.875 430 133.458 431.625 130.625C433.292 127.792 434.125 123.542 434.125 117.875C434.125 112.25 433.292 108.021 431.625 105.188C430 102.354 427.438 100.938 423.938 100.938C417.021 100.938 413.562 106.583 413.562 117.875C413.562 123.5 414.396 127.75 416.062 130.625C417.771 133.458 420.396 134.875 423.938 134.875ZM480.312 147.938C475.021 147.938 470.979 146.458 468.188 143.5C465.438 140.5 464.062 135.958 464.062 129.875V101.875H462.312C461.146 101.875 460.292 101.438 459.75 100.562C459.25 99.6875 459 98.2708 459 96.3125V94.4375C459 92.4792 459.25 91.0625 459.75 90.1875C460.292 89.3125 461.146 88.875 462.312 88.875H464.062L465.5 78.3125C465.833 75.9792 467.833 74.8125 471.5 74.8125H475C476.917 74.8125 478.312 75.1042 479.188 75.6875C480.104 76.2708 480.562 77.1458 480.562 78.3125V88.875H486C487.167 88.875 488 89.3125 488.5 90.1875C489.042 91.0625 489.312 92.4792 489.312 94.4375V96.3125C489.312 98.2708 489.042 99.6875 488.5 100.562C488 101.438 487.167 101.875 486 101.875H480.562V130.062C480.562 131.771 480.854 133 481.438 133.75C482.062 134.5 483.083 134.875 484.5 134.875C484.917 134.875 485.479 134.812 486.188 134.688C486.896 134.521 487.333 134.438 487.5 134.438C488.167 134.438 488.75 135 489.25 136.125C489.792 137.208 490.208 138.417 490.5 139.75C490.833 141.083 491 141.979 491 142.438C491 146.104 487.438 147.938 480.312 147.938Z" fill="black"/>
<path d="M276 23H236C230.477 23 226 27.4772 226 33V73C226 78.5228 230.477 83 236 83H276C281.523 83 286 78.5228 286 73V33C286 27.4772 281.523 23 276 23Z" fill="#165083"/>
<path d="M241 58C243.761 58 246 55.7614 246 53C246 50.2386 243.761 48 241 48C238.239 48 236 50.2386 236 53C236 55.7614 238.239 58 241 58Z" fill="white"/>
<path d="M271 58C273.761 58 276 55.7614 276 53C276 50.2386 273.761 48 271 48C268.239 48 266 50.2386 266 53C266 55.7614 268.239 58 271 58Z" fill="white"/>
<path d="M263.5 68H248.5C247.119 68 246 69.1193 246 70.5C246 71.8807 247.119 73 248.5 73H263.5C264.881 73 266 71.8807 266 70.5C266 69.1193 264.881 68 263.5 68Z" fill="black"/>
<path d="M241 23V13" stroke="#165083" stroke-width="3"/>
<path d="M241 14C242.657 14 244 12.6569 244 11C244 9.34315 242.657 8 241 8C239.343 8 238 9.34315 238 11C238 12.6569 239.343 14 241 14Z" fill="#165083"/>
<path d="M271 23V13" stroke="#165083" stroke-width="3"/>
<path d="M271 14C272.657 14 274 12.6569 274 11C274 9.34315 272.657 8 271 8C269.343 8 268 9.34315 268 11C268 12.6569 269.343 14 271 14Z" fill="#165083"/>
<path d="M286 83H226C220.477 83 216 87.4772 216 93V153C216 158.523 220.477 163 226 163H286C291.523 163 296 158.523 296 153V93C296 87.4772 291.523 83 286 83Z" fill="#ADB5BD"/>
<path d="M211 93H191C188.239 93 186 95.2386 186 98C186 100.761 188.239 103 191 103H211C213.761 103 216 100.761 216 98C216 95.2386 213.761 93 211 93Z" fill="#165083"/>
<path d="M321 93H301C298.239 93 296 95.2386 296 98C296 100.761 298.239 103 301 103H321C323.761 103 326 100.761 326 98C326 95.2386 323.761 93 321 93Z" fill="#165083"/>
<path d="M225.622 69.3635L190.849 78.681C189.782 78.9669 189.149 80.0635 189.435 81.1305L203.928 135.222C204.214 136.289 205.311 136.922 206.378 136.637L241.151 127.319C242.218 127.033 242.851 125.936 242.565 124.87L228.072 70.7777C227.786 69.7108 226.689 69.0776 225.622 69.3635Z" fill="white" stroke="black"/>
<path d="M239.385 75.2541L203.932 81.5055C202.844 81.6973 202.118 82.7346 202.31 83.8224L212.034 138.972C212.226 140.059 213.263 140.786 214.351 140.594L249.804 134.343C250.892 134.151 251.618 133.113 251.427 132.026L241.702 76.8765C241.51 75.7887 240.473 75.0623 239.385 75.2541Z" fill="white" stroke="black"/>
<path d="M252.188 81.5073L216.325 84.6449C215.225 84.7412 214.411 85.7112 214.507 86.8116L219.388 142.599C219.484 143.699 220.454 144.513 221.555 144.417L257.418 141.279C258.518 141.183 259.332 140.213 259.236 139.112L254.355 83.3254C254.259 82.225 253.289 81.411 252.188 81.5073Z" fill="white" stroke="black"/>
<path d="M246 163H226V193H246V163Z" fill="#165083"/>
<path d="M286 163H266V193H286V163Z" fill="#165083"/>
<path d="M251 193H221V203H251V193Z" fill="black"/>
<path d="M291 193H261V203H291V193Z" fill="black"/>
<path d="M424.699 203.117C423.48 203.117 422.375 202.598 421.383 201.559C421.32 201.988 421.207 202.398 421.043 202.789C421.012 202.883 420.949 202.949 420.855 202.988C420.77 203.02 420.648 203.035 420.492 203.035H420.41C420.191 203.035 420.031 203 419.93 202.93C419.836 202.852 419.789 202.734 419.789 202.578V187.789C419.789 187.484 420.062 187.332 420.609 187.332H420.703C421.25 187.332 421.523 187.484 421.523 187.789V193.039C421.977 192.695 422.438 192.434 422.906 192.254C423.375 192.074 423.91 191.984 424.512 191.984C425.34 191.984 426.074 192.199 426.715 192.629C427.355 193.059 427.852 193.691 428.203 194.527C428.562 195.363 428.742 196.367 428.742 197.539C428.742 198.617 428.578 199.582 428.25 200.434C427.922 201.277 427.453 201.938 426.844 202.414C426.234 202.883 425.52 203.117 424.699 203.117ZM424.348 201.605C425.168 201.605 425.797 201.242 426.234 200.516C426.68 199.781 426.902 198.742 426.902 197.398C426.902 196.148 426.668 195.195 426.199 194.539C425.73 193.883 425.035 193.543 424.113 193.52C423.652 193.52 423.199 193.598 422.754 193.754C422.309 193.91 421.898 194.145 421.523 194.457V200.164C421.953 200.625 422.414 200.98 422.906 201.23C423.398 201.48 423.879 201.605 424.348 201.605ZM432.785 207.336C432.332 207.336 432.105 207.223 432.105 206.996C432.105 206.941 432.137 206.828 432.199 206.656L433.945 202.414L430.301 192.688C430.293 192.656 430.281 192.613 430.266 192.559C430.25 192.496 430.242 192.449 430.242 192.418C430.242 192.309 430.316 192.223 430.465 192.16C430.613 192.098 430.84 192.066 431.145 192.066H431.309C431.777 192.066 432.055 192.176 432.141 192.395L434.262 198.043C434.449 198.535 434.672 199.234 434.93 200.141H434.965L435.211 199.367C435.25 199.25 435.316 199.051 435.41 198.77C435.504 198.48 435.59 198.238 435.668 198.043L437.742 192.395C437.812 192.176 438.098 192.066 438.598 192.066H438.668C439.215 192.066 439.488 192.184 439.488 192.418C439.488 192.473 439.469 192.566 439.43 192.699L434.086 206.902C433.961 207.191 433.633 207.336 433.102 207.336H432.785ZM446.062 203.035C445.75 203.035 445.523 203.008 445.383 202.953C445.242 202.891 445.172 202.801 445.172 202.684C445.172 202.629 445.191 202.535 445.23 202.402L450.164 188.703C450.242 188.477 450.52 188.363 450.996 188.363H451.605C452.082 188.363 452.359 188.477 452.438 188.703L457.371 202.414C457.41 202.5 457.43 202.59 457.43 202.684C457.43 202.918 457.137 203.035 456.551 203.035H456.375C455.891 203.035 455.609 202.926 455.531 202.707L454.312 199.285H448.195L447 202.707C446.93 202.926 446.652 203.035 446.168 203.035H446.062ZM453.75 197.703L451.57 191.504C451.508 191.332 451.457 191.137 451.418 190.918C451.379 190.699 451.344 190.488 451.312 190.285H451.266C451.172 190.809 451.066 191.215 450.949 191.504L448.77 197.703H453.75ZM465.105 203.117C463.895 203.117 462.863 202.93 462.012 202.555C461.16 202.172 460.516 201.621 460.078 200.902C459.641 200.184 459.422 199.324 459.422 198.324V188.832C459.422 188.52 459.699 188.363 460.254 188.363H460.418C460.973 188.363 461.25 188.52 461.25 188.832V198.395C461.25 199.004 461.418 199.547 461.754 200.023C462.09 200.5 462.551 200.871 463.137 201.137C463.723 201.402 464.379 201.535 465.105 201.535C465.84 201.535 466.5 201.402 467.086 201.137C467.672 200.863 468.129 200.488 468.457 200.012C468.793 199.535 468.961 198.996 468.961 198.395V188.832C468.961 188.52 469.238 188.363 469.793 188.363H469.969C470.516 188.363 470.789 188.52 470.789 188.832V198.324C470.789 199.324 470.57 200.184 470.133 200.902C469.695 201.621 469.051 202.172 468.199 202.555C467.348 202.93 466.316 203.117 465.105 203.117ZM475.172 203C474.953 203 474.793 202.949 474.691 202.848C474.59 202.746 474.539 202.59 474.539 202.379V189.043C474.539 188.824 474.59 188.668 474.691 188.574C474.793 188.473 474.953 188.422 475.172 188.422H482.438C482.586 188.422 482.691 188.469 482.754 188.562C482.824 188.656 482.859 188.816 482.859 189.043V189.383C482.859 189.594 482.824 189.75 482.754 189.852C482.691 189.953 482.586 190.004 482.438 190.004H476.379V194.75H481.816C481.965 194.75 482.07 194.801 482.133 194.902C482.203 195.004 482.238 195.164 482.238 195.383V195.699C482.238 195.918 482.203 196.078 482.133 196.18C482.07 196.273 481.965 196.32 481.816 196.32H476.379V201.418H482.461C482.609 201.418 482.715 201.469 482.777 201.57C482.848 201.664 482.883 201.82 482.883 202.039V202.379C482.883 202.59 482.848 202.746 482.777 202.848C482.715 202.949 482.609 203 482.461 203H475.172ZM486.562 203C486.344 203 486.184 202.949 486.082 202.848C485.98 202.746 485.93 202.59 485.93 202.379V188.832C485.93 188.52 486.211 188.363 486.773 188.363H486.938C487.492 188.363 487.77 188.52 487.77 188.832V201.418H493.5C493.648 201.418 493.754 201.469 493.816 201.57C493.879 201.664 493.91 201.82 493.91 202.039V202.379C493.91 202.59 493.879 202.746 493.816 202.848C493.754 202.949 493.648 203 493.5 203H486.562Z" fill="black"/>
</svg>
