<svg width="494" height="216" viewBox="0 0 494 216" fill="none" xmlns="http://www.w3.org/2000/svg">
<path d="M12.25 147C10.7083 147 9.58333 146.646 8.875 145.938C8.16667 145.229 7.8125 144.104 7.8125 142.562V72.5625C7.8125 71.3542 8.35417 70.4583 9.4375 69.875C10.5208 69.25 12.2083 68.9375 14.5 68.9375H18.25C20.5417 68.9375 22.2292 69.25 23.3125 69.875C24.3958 70.4583 24.9375 71.3542 24.9375 72.5625V132.438H49.6875C50.8542 132.438 51.6875 132.875 52.1875 133.75C52.7292 134.625 53 136.021 53 137.938V141.438C53 143.396 52.7292 144.812 52.1875 145.688C51.6875 146.562 50.8542 147 49.6875 147H12.25ZM85.5625 147.938C76.7708 147.938 70.0625 145.354 65.4375 140.188C60.8542 135.021 58.5625 127.583 58.5625 117.875C58.5625 108.208 60.8542 100.812 65.4375 95.6875C70.0625 90.5625 76.7708 88 85.5625 88C94.3542 88 101.021 90.5625 105.562 95.6875C110.146 100.771 112.438 108.167 112.438 117.875C112.438 127.583 110.146 135.021 105.562 140.188C101.021 145.354 94.3542 147.938 85.5625 147.938ZM85.5625 134.875C89.0625 134.875 91.625 133.458 93.25 130.625C94.9167 127.792 95.75 123.542 95.75 117.875C95.75 112.25 94.9167 108.021 93.25 105.188C91.625 102.354 89.0625 100.938 85.5625 100.938C78.6458 100.938 75.1875 106.583 75.1875 117.875C75.1875 123.5 76.0208 127.75 77.6875 130.625C79.3958 133.458 82.0208 134.875 85.5625 134.875ZM146.25 170.562C128.625 170.562 119.812 165.438 119.812 155.188C119.812 152.312 120.667 149.771 122.375 147.562C124.125 145.354 126.646 143.604 129.938 142.312L130 141.875C128.5 141.083 127.333 139.958 126.5 138.5C125.667 137.042 125.25 135.396 125.25 133.562C125.25 131.688 125.812 129.958 126.938 128.375C128.104 126.792 129.771 125.438 131.938 124.312C129.104 122.729 126.875 120.562 125.25 117.812C123.667 115.062 122.875 111.708 122.875 107.75C122.875 101 125.062 96.0208 129.438 92.8125C133.854 89.6042 139.646 88 146.812 88C149.812 88 152.667 88.2917 155.375 88.875H173.25C174.417 88.875 175.271 89.3333 175.812 90.25C176.354 91.125 176.625 92.5208 176.625 94.4375V96.3125C176.625 99.8125 175.729 101.562 173.938 101.562C173.312 101.562 172.458 101.521 171.375 101.438C170.333 101.354 169.583 101.25 169.125 101.125L168.938 101.562C169.438 102.229 169.854 103.167 170.188 104.375C170.521 105.542 170.688 106.667 170.688 107.75C170.688 114.375 168.604 119.312 164.438 122.562C160.271 125.771 154.812 127.375 148.062 127.375C143.521 127.375 141.25 128.396 141.25 130.438C141.25 131.354 141.708 132.083 142.625 132.625C143.542 133.125 144.708 133.521 146.125 133.812C147.583 134.104 149.646 134.417 152.312 134.75C154.229 134.958 156.021 135.208 157.688 135.5C162.938 136.542 167.125 138.25 170.25 140.625C173.375 142.958 174.938 146.646 174.938 151.688C174.938 155.479 173.75 158.792 171.375 161.625C169 164.458 165.646 166.646 161.312 168.188C156.979 169.771 151.958 170.562 146.25 170.562ZM146.812 115.562C149.271 115.562 151.271 114.917 152.812 113.625C154.396 112.333 155.188 110.375 155.188 107.75C155.188 105.125 154.396 103.167 152.812 101.875C151.271 100.542 149.271 99.875 146.812 99.875C144.354 99.875 142.333 100.542 140.75 101.875C139.208 103.167 138.438 105.125 138.438 107.75C138.438 110.375 139.208 112.333 140.75 113.625C142.333 114.917 144.354 115.562 146.812 115.562ZM147.5 157.562C151.25 157.562 154.083 157.083 156 156.125C157.958 155.167 158.938 153.833 158.938 152.125C158.938 150.958 158.375 150.021 157.25 149.312C156.167 148.646 154.396 148.083 151.938 147.625C149.521 147.208 146.125 146.854 141.75 146.562C139.875 147.229 138.417 148.104 137.375 149.188C136.333 150.271 135.812 151.396 135.812 152.562C135.812 154.146 136.771 155.375 138.688 156.25C140.604 157.125 143.542 157.562 147.5 157.562Z" fill="black"/>
<path d="M338.5 147C336.958 147 335.833 146.646 335.125 145.938C334.417 145.229 334.062 144.104 334.062 142.562V73.625C334.062 72.0833 334.417 70.9792 335.125 70.3125C335.833 69.6042 336.958 69.25 338.5 69.25H360.5C369.5 69.25 376.125 71 380.375 74.5C384.625 77.9583 386.75 82.75 386.75 88.875C386.75 92.5417 385.604 95.9167 383.312 99C381.021 102.083 378.146 104.333 374.688 105.75L374.812 106.188C377.729 106.771 380.312 107.958 382.562 109.75C384.854 111.542 386.625 113.729 387.875 116.312C389.167 118.896 389.812 121.604 389.812 124.438C389.812 131.729 387.5 137.312 382.875 141.188C378.25 145.062 371.312 147 362.062 147H338.5ZM358.812 100.188C362.062 100.188 364.583 99.4167 366.375 97.875C368.208 96.2917 369.125 94.2917 369.125 91.875C369.125 86.375 365.75 83.625 359 83.625H351.188V100.188H358.812ZM362.062 132.438C365.271 132.438 367.771 131.667 369.562 130.125C371.354 128.542 372.25 126.312 372.25 123.438C372.25 120.604 371.208 118.458 369.125 117C367.083 115.542 364.125 114.812 360.25 114.812H351.188V132.438H362.062ZM423.938 147.938C415.146 147.938 408.438 145.354 403.812 140.188C399.229 135.021 396.938 127.583 396.938 117.875C396.938 108.208 399.229 100.812 403.812 95.6875C408.438 90.5625 415.146 88 423.938 88C432.729 88 439.396 90.5625 443.938 95.6875C448.521 100.771 450.812 108.167 450.812 117.875C450.812 127.583 448.521 135.021 443.938 140.188C439.396 145.354 432.729 147.938 423.938 147.938ZM423.938 134.875C427.438 134.875 430 133.458 431.625 130.625C433.292 127.792 434.125 123.542 434.125 117.875C434.125 112.25 433.292 108.021 431.625 105.188C430 102.354 427.438 100.938 423.938 100.938C417.021 100.938 413.562 106.583 413.562 117.875C413.562 123.5 414.396 127.75 416.062 130.625C417.771 133.458 420.396 134.875 423.938 134.875ZM480.312 147.938C475.021 147.938 470.979 146.458 468.188 143.5C465.438 140.5 464.062 135.958 464.062 129.875V101.875H462.312C461.146 101.875 460.292 101.438 459.75 100.562C459.25 99.6875 459 98.2708 459 96.3125V94.4375C459 92.4792 459.25 91.0625 459.75 90.1875C460.292 89.3125 461.146 88.875 462.312 88.875H464.062L465.5 78.3125C465.833 75.9792 467.833 74.8125 471.5 74.8125H475C476.917 74.8125 478.312 75.1042 479.188 75.6875C480.104 76.2708 480.562 77.1458 480.562 78.3125V88.875H486C487.167 88.875 488 89.3125 488.5 90.1875C489.042 91.0625 489.312 92.4792 489.312 94.4375V96.3125C489.312 98.2708 489.042 99.6875 488.5 100.562C488 101.438 487.167 101.875 486 101.875H480.562V130.062C480.562 131.771 480.854 133 481.438 133.75C482.062 134.5 483.083 134.875 484.5 134.875C484.917 134.875 485.479 134.812 486.188 134.688C486.896 134.521 487.333 134.438 487.5 134.438C488.167 134.438 488.75 135 489.25 136.125C489.792 137.208 490.208 138.417 490.5 139.75C490.833 141.083 491 141.979 491 142.438C491 146.104 487.438 147.938 480.312 147.938Z" fill="black"/>
<path d="M276 23H236C230.477 23 226 27.4772 226 33V73C226 78.5228 230.477 83 236 83H276C281.523 83 286 78.5228 286 73V33C286 27.4772 281.523 23 276 23Z" fill="#165083"/>
<path d="M241 58C243.761 58 246 55.7614 246 53C246 50.2386 243.761 48 241 48C238.239 48 236 50.2386 236 53C236 55.7614 238.239 58 241 58Z" fill="white"/>
<path d="M271 58C273.761 58 276 55.7614 276 53C276 50.2386 273.761 48 271 48C268.239 48 266 50.2386 266 53C266 55.7614 268.239 58 271 58Z" fill="white"/>
<path d="M263.5 68H248.5C247.119 68 246 69.1193 246 70.5C246 71.8807 247.119 73 248.5 73H263.5C264.881 73 266 71.8807 266 70.5C266 69.1193 264.881 68 263.5 68Z" fill="black"/>
<path d="M241 23V13" stroke="#165083" stroke-width="3"/>
<path d="M241 14C242.657 14 244 12.6569 244 11C244 9.34315 242.657 8 241 8C239.343 8 238 9.34315 238 11C238 12.6569 239.343 14 241 14Z" fill="#165083"/>
<path d="M271 23V13" stroke="#165083" stroke-width="3"/>
<path d="M271 14C272.657 14 274 12.6569 274 11C274 9.34315 272.657 8 271 8C269.343 8 268 9.34315 268 11C268 12.6569 269.343 14 271 14Z" fill="#165083"/>
<path d="M286 83H226C220.477 83 216 87.4772 216 93V153C216 158.523 220.477 163 226 163H286C291.523 163 296 158.523 296 153V93C296 87.4772 291.523 83 286 83Z" fill="#ADB5BD"/>
<path d="M211 93H191C188.239 93 186 95.2386 186 98C186 100.761 188.239 103 191 103H211C213.761 103 216 100.761 216 98C216 95.2386 213.761 93 211 93Z" fill="#165083"/>
<path d="M321 93H301C298.239 93 296 95.2386 296 98C296 100.761 298.239 103 301 103H321C323.761 103 326 100.761 326 98C326 95.2386 323.761 93 321 93Z" fill="#165083"/>
<path d="M225.622 69.3635L190.849 78.681C189.782 78.9669 189.149 80.0635 189.435 81.1305L203.928 135.222C204.214 136.289 205.311 136.922 206.378 136.637L241.151 127.319C242.218 127.033 242.851 125.936 242.565 124.87L228.072 70.7777C227.786 69.7108 226.689 69.0776 225.622 69.3635Z" fill="white" stroke="black"/>
<path d="M239.385 75.2541L203.932 81.5055C202.844 81.6973 202.118 82.7346 202.31 83.8224L212.034 138.972C212.226 140.059 213.263 140.786 214.351 140.594L249.804 134.343C250.892 134.151 251.618 133.113 251.427 132.026L241.702 76.8765C241.51 75.7887 240.473 75.0623 239.385 75.2541Z" fill="white" stroke="black"/>
<path d="M252.188 81.5073L216.325 84.6449C215.225 84.7412 214.411 85.7112 214.507 86.8116L219.388 142.599C219.484 143.699 220.454 144.513 221.555 144.417L257.418 141.279C258.518 141.183 259.332 140.213 259.236 139.112L254.355 83.3254C254.259 82.225 253.289 81.411 252.188 81.5073Z" fill="white" stroke="black"/>
<path d="M246 163H226V193H246V163Z" fill="#165083"/>
<path d="M286 163H266V193H286V163Z" fill="#165083"/>
<path d="M251 193H221V203H251V193Z" fill="black"/>
<path d="M291 193H261V203H291V193Z" fill="black"/>
<path d="M462.154 201.054C461.595 201.054 461.089 200.816 460.634 200.339C460.605 200.536 460.553 200.724 460.478 200.903C460.464 200.946 460.435 200.977 460.392 200.995C460.353 201.009 460.297 201.016 460.226 201.016H460.188C460.088 201.016 460.014 201 459.968 200.968C459.925 200.932 459.903 200.878 459.903 200.807V194.028C459.903 193.889 460.029 193.819 460.279 193.819H460.322C460.573 193.819 460.698 193.889 460.698 194.028V196.435C460.906 196.277 461.117 196.157 461.332 196.075C461.547 195.992 461.792 195.951 462.068 195.951C462.447 195.951 462.784 196.05 463.078 196.247C463.371 196.444 463.599 196.734 463.76 197.117C463.924 197.5 464.007 197.96 464.007 198.497C464.007 198.991 463.932 199.433 463.781 199.824C463.631 200.21 463.416 200.513 463.137 200.731C462.857 200.946 462.53 201.054 462.154 201.054ZM461.993 200.361C462.369 200.361 462.657 200.194 462.857 199.861C463.062 199.525 463.164 199.049 463.164 198.433C463.164 197.86 463.056 197.423 462.841 197.122C462.626 196.821 462.308 196.666 461.885 196.655C461.674 196.655 461.466 196.691 461.262 196.762C461.058 196.834 460.87 196.941 460.698 197.084V199.7C460.895 199.911 461.106 200.074 461.332 200.189C461.558 200.304 461.778 200.361 461.993 200.361ZM465.86 202.987C465.652 202.987 465.548 202.935 465.548 202.832C465.548 202.806 465.563 202.755 465.591 202.676L466.392 200.731L464.721 196.273C464.718 196.259 464.712 196.239 464.705 196.214C464.698 196.186 464.694 196.164 464.694 196.15C464.694 196.1 464.728 196.06 464.796 196.032C464.864 196.003 464.968 195.989 465.108 195.989H465.183C465.398 195.989 465.525 196.039 465.564 196.139L466.537 198.728C466.623 198.954 466.725 199.274 466.843 199.689H466.859L466.972 199.335C466.99 199.281 467.02 199.19 467.063 199.061C467.106 198.929 467.145 198.818 467.181 198.728L468.132 196.139C468.164 196.039 468.295 195.989 468.524 195.989H468.556C468.807 195.989 468.932 196.042 468.932 196.15C468.932 196.175 468.923 196.218 468.905 196.279L466.456 202.789C466.399 202.921 466.248 202.987 466.005 202.987H465.86ZM471.945 201.016C471.802 201.016 471.698 201.004 471.634 200.979C471.569 200.95 471.537 200.909 471.537 200.855C471.537 200.83 471.546 200.787 471.564 200.726L473.825 194.447C473.861 194.343 473.988 194.292 474.207 194.292H474.486C474.704 194.292 474.831 194.343 474.867 194.447L477.128 200.731C477.146 200.771 477.155 200.812 477.155 200.855C477.155 200.962 477.021 201.016 476.752 201.016H476.672C476.45 201.016 476.321 200.966 476.285 200.866L475.727 199.297H472.923L472.375 200.866C472.343 200.966 472.216 201.016 471.994 201.016H471.945ZM475.469 198.572L474.47 195.731C474.441 195.652 474.418 195.563 474.4 195.462C474.382 195.362 474.366 195.265 474.352 195.172H474.33C474.287 195.412 474.239 195.598 474.185 195.731L473.186 198.572H475.469ZM480.673 201.054C480.118 201.054 479.646 200.968 479.255 200.796C478.865 200.62 478.57 200.368 478.369 200.039C478.169 199.709 478.068 199.315 478.068 198.857V194.506C478.068 194.363 478.195 194.292 478.45 194.292H478.525C478.779 194.292 478.906 194.363 478.906 194.506V198.889C478.906 199.168 478.983 199.417 479.137 199.636C479.291 199.854 479.502 200.024 479.771 200.146C480.04 200.268 480.34 200.329 480.673 200.329C481.01 200.329 481.312 200.268 481.581 200.146C481.85 200.021 482.059 199.849 482.209 199.63C482.363 199.412 482.44 199.165 482.44 198.889V194.506C482.44 194.363 482.568 194.292 482.822 194.292H482.902C483.153 194.292 483.278 194.363 483.278 194.506V198.857C483.278 199.315 483.178 199.709 482.978 200.039C482.777 200.368 482.482 200.62 482.091 200.796C481.701 200.968 481.228 201.054 480.673 201.054ZM485.287 201C485.187 201 485.113 200.977 485.067 200.93C485.02 200.884 484.997 200.812 484.997 200.715V194.603C484.997 194.503 485.02 194.431 485.067 194.388C485.113 194.342 485.187 194.318 485.287 194.318H488.617C488.685 194.318 488.734 194.34 488.762 194.383C488.794 194.426 488.811 194.499 488.811 194.603V194.759C488.811 194.855 488.794 194.927 488.762 194.974C488.734 195.02 488.685 195.043 488.617 195.043H485.84V197.219H488.333C488.401 197.219 488.449 197.242 488.478 197.289C488.51 197.335 488.526 197.409 488.526 197.509V197.654C488.526 197.754 488.51 197.827 488.478 197.874C488.449 197.917 488.401 197.938 488.333 197.938H485.84V200.275H488.628C488.696 200.275 488.744 200.298 488.773 200.345C488.805 200.388 488.821 200.459 488.821 200.56V200.715C488.821 200.812 488.805 200.884 488.773 200.93C488.744 200.977 488.696 201 488.628 201H485.287ZM490.508 201C490.408 201 490.334 200.977 490.288 200.93C490.241 200.884 490.218 200.812 490.218 200.715V194.506C490.218 194.363 490.347 194.292 490.604 194.292H490.68C490.934 194.292 491.061 194.363 491.061 194.506V200.275H493.688C493.756 200.275 493.804 200.298 493.833 200.345C493.861 200.388 493.875 200.459 493.875 200.56V200.715C493.875 200.812 493.861 200.884 493.833 200.93C493.804 200.977 493.756 201 493.688 201H490.508Z" fill="black"/>
</svg>
