<svg xmlns="http://www.w3.org/2000/svg" version="1.1" xmlns:xlink="http://www.w3.org/1999/xlink" xmlns:svgjs="http://svgjs.dev/svgjs" width="257.808px" height="255.84px"><svg xmlns="http://www.w3.org/2000/svg" viewBox="313.1055 -531.1043 257.808 255.84" width="257.808px" height="255.84px"><g transform="matrix(3.2799999713897705, 0, 0, 3.2799999713897705, 442.0095308517773, -403.18427368130654)" id="SvgjsG1027"><path style="stroke: none; stroke-width: 1; stroke-dasharray: none; stroke-linecap: butt; stroke-dashoffset: 0; stroke-linejoin: miter; stroke-miterlimit: 4; fill: rgb(0,178,75); fill-rule: nonzero; opacity: 1;" vector-effect="non-scaling-stroke" transform=" translate(-50.5, -50)" d="M 29.5 25.5 C 32 25.5 34.1 23.4 34.1 20.9 C 34.1 18.4 32 16.299999999999997 29.5 16.299999999999997 C 27 16.299999999999997 24.9 18.4 24.9 20.9 C 24.9 23.4 27 25.5 29.5 25.5 z M 27 58 C 27 58.7 27.6 59.3 28.3 59.3 C 29 59.3 29.6 58.699999999999996 29.6 58 C 29.6 57.300000000000004 29 56.7 28.3 56.7 C 27.6 56.7 27 57.3 27 58 z M 36.2 31.3 C 37.300000000000004 31.3 38.1 30.400000000000002 38.1 29.400000000000002 C 38.1 28.3 37.2 27.500000000000004 36.2 27.500000000000004 C 35.1 27.500000000000004 34.300000000000004 28.400000000000002 34.300000000000004 29.400000000000002 C 34.3 30.4 35.1 31.3 36.2 31.3 z M 21.1 48.6 C 23.6 48.6 25.700000000000003 46.5 25.700000000000003 44 C 25.700000000000003 41.5 23.6 39.4 21.1 39.4 C 18.6 39.4 16.5 41.5 16.5 44 C 16.6 46.5 18.6 48.6 21.1 48.6 z M 14.5 37.8 C 15.6 37.8 16.4 36.9 16.4 35.9 C 16.4 34.8 15.499999999999998 34 14.499999999999998 34 C 13.399999999999999 34 12.599999999999998 34.9 12.599999999999998 35.9 C 12.6 37 13.4 37.8 14.5 37.8 z M 13.8 42 C 13.8 41.3 13.200000000000001 40.7 12.5 40.7 C 11.8 40.7 11.2 41.300000000000004 11.2 42 C 11.2 42.699999999999996 11.799999999999999 43.3 12.5 43.3 C 13.2 43.3 13.8 42.7 13.8 42 z M 19.9 31.2 C 21.7 31.2 23.099999999999998 29.8 23.099999999999998 28 C 23.099999999999998 26.2 21.7 24.8 19.9 24.8 C 18.099999999999998 24.8 16.7 26.2 16.7 28 C 16.7 29.8 18.1 31.2 19.9 31.2 z M 58.8 13.6 C 59.5 13.6 60.099999999999994 13 60.099999999999994 12.299999999999999 C 60.099999999999994 11.6 59.49999999999999 10.999999999999998 58.8 10.999999999999998 C 58.099999999999994 10.999999999999998 57.5 11.599999999999998 57.5 12.299999999999999 C 57.5 13 58.1 13.6 58.8 13.6 z M 23.8 57.5 C 23.8 54.4 21.3 51.9 18.200000000000003 51.9 C 15.100000000000003 51.9 12.600000000000003 54.4 12.600000000000003 57.5 C 12.600000000000003 60.6 15.100000000000003 63.1 18.200000000000003 63.1 C 21.3 63.1 23.8 60.6 23.8 57.5 z M 79.9 33.9 C 82.4 33.9 84.5 31.799999999999997 84.5 29.299999999999997 C 84.5 26.799999999999997 82.4 24.699999999999996 79.9 24.699999999999996 C 77.4 24.699999999999996 75.30000000000001 26.799999999999997 75.30000000000001 29.299999999999997 C 75.30000000000001 31.799999999999997 77.3 33.9 79.9 33.9 z M 69.6 65.5 C 69.6 67.3 71 68.7 72.8 68.7 C 74.6 68.7 76 67.3 76 65.5 C 76 63.7 74.6 62.3 72.8 62.3 C 71 62.3 69.6 63.7 69.6 65.5 z M 72.8 22.9 C 74.6 22.9 76 21.5 76 19.7 C 76 17.9 74.6 16.5 72.8 16.5 C 71 16.5 69.6 17.9 69.6 19.7 C 69.6 21.5 71 22.9 72.8 22.9 z M 65.7 31.2 C 67.5 31.2 68.9 29.8 68.9 28 C 68.9 26.2 67.5 24.8 65.7 24.8 C 63.900000000000006 24.8 62.5 26.2 62.5 28 C 62.5 29.8 63.9 31.2 65.7 31.2 z M 77.2 42.5 C 77.2 45.6 79.7 48.1 82.8 48.1 C 85.89999999999999 48.1 88.39999999999999 45.6 88.39999999999999 42.5 C 88.39999999999999 39.4 85.89999999999999 36.9 82.8 36.9 C 79.7 36.9 77.2 39.4 77.2 42.5 z M 74 42 C 74 41.3 73.4 40.7 72.7 40.7 C 72 40.7 71.4 41.300000000000004 71.4 42 C 71.4 42.699999999999996 72 43.3 72.7 43.3 C 73.4 43.3 74 42.7 74 42 z M 64.8 16.1 C 65.89999999999999 16.1 66.7 15.200000000000001 66.7 14.200000000000001 C 66.7 13.200000000000001 65.8 12.3 64.8 12.3 C 63.699999999999996 12.3 62.9 13.200000000000001 62.9 14.200000000000001 C 62.9 15.200000000000001 63.8 16.1 64.8 16.1 z M 70.8 37.8 C 71.89999999999999 37.8 72.7 36.9 72.7 35.9 C 72.7 34.8 71.8 34 70.8 34 C 69.8 34 68.89999999999999 34.9 68.89999999999999 35.9 C 68.9 37 69.8 37.8 70.8 37.8 z M 31.4 34.5 C 31.4 32.7 30 31.3 28.2 31.3 C 26.4 31.3 25 32.7 25 34.5 C 25 36.3 26.4 37.7 28.2 37.7 C 30 37.7 31.4 36.3 31.4 34.5 z M 64.8 68.7 C 63.699999999999996 68.7 62.9 69.60000000000001 62.9 70.60000000000001 C 62.9 71.7 63.8 72.50000000000001 64.8 72.50000000000001 C 65.89999999999999 72.50000000000001 66.7 71.60000000000001 66.7 70.60000000000001 C 66.7 69.6 65.9 68.7 64.8 68.7 z M 58.3 76.4 C 55.199999999999996 76.4 52.699999999999996 78.9 52.699999999999996 82 C 52.699999999999996 85.1 55.199999999999996 87.6 58.3 87.6 C 61.4 87.6 63.9 85.1 63.9 82 C 63.9 78.9 61.4 76.4 58.3 76.4 z M 71.5 74.5 C 69 74.5 66.9 76.6 66.9 79.1 C 66.9 81.6 69 83.69999999999999 71.5 83.69999999999999 C 74 83.69999999999999 76.1 81.6 76.1 79.1 C 76.1 76.6 74 74.5 71.5 74.5 z M 57.5 72.5 C 57.5 73.2 58.1 73.8 58.8 73.8 C 59.5 73.8 60.099999999999994 73.2 60.099999999999994 72.5 C 60.099999999999994 71.8 59.49999999999999 71.2 58.8 71.2 C 58.1 71.3 57.5 71.8 57.5 72.5 z M 88.5 56.7 C 87.8 56.7 87.2 57.300000000000004 87.2 58 C 87.2 58.699999999999996 87.8 59.3 88.5 59.3 C 89.2 59.3 89.8 58.699999999999996 89.8 58 C 89.8 57.300000000000004 89.1 56.7 88.5 56.7 z M 86.5 62.2 C 85.4 62.2 84.6 63.1 84.6 64.10000000000001 C 84.6 65.2 85.5 66.00000000000001 86.5 66.00000000000001 C 87.6 66.00000000000001 88.4 65.10000000000001 88.4 64.10000000000001 C 88.4 63 87.6 62.2 86.5 62.2 z M 56.2 25.5 C 58.7 25.5 60.800000000000004 23.4 60.800000000000004 20.9 C 60.800000000000004 18.4 58.7 16.299999999999997 56.2 16.299999999999997 C 53.7 16.299999999999997 51.6 18.4 51.6 20.9 C 51.6 23.4 53.7 25.5 56.2 25.5 z M 79.9 51.4 C 77.4 51.4 75.30000000000001 53.5 75.30000000000001 56 C 75.30000000000001 58.5 77.4 60.6 79.9 60.6 C 82.4 60.6 84.5 58.5 84.5 56 C 84.4 53.5 82.4 51.4 79.9 51.4 z M 21.1 66.1 C 18.6 66.1 16.5 68.19999999999999 16.5 70.69999999999999 C 16.5 73.19999999999999 18.6 75.29999999999998 21.1 75.29999999999998 C 23.6 75.29999999999998 25.700000000000003 73.19999999999999 25.700000000000003 70.69999999999999 C 25.700000000000003 68.19999999999999 23.7 66.1 21.1 66.1 z M 81.1 68.8 C 79.3 68.8 77.89999999999999 70.2 77.89999999999999 72 C 77.89999999999999 73.8 79.3 75.2 81.1 75.2 C 82.89999999999999 75.2 84.3 73.8 84.3 72 C 84.3 70.2 82.9 68.8 81.1 68.8 z M 30.2 62.2 C 29.099999999999998 62.2 28.3 63.1 28.3 64.10000000000001 C 28.3 65.2 29.2 66.00000000000001 30.2 66.00000000000001 C 31.2 66.00000000000001 32.1 65.10000000000001 32.1 64.10000000000001 C 32.1 63 31.2 62.2 30.2 62.2 z M 35.3 68.8 C 33.5 68.8 32.099999999999994 70.2 32.099999999999994 72 C 32.099999999999994 73.8 33.49999999999999 75.2 35.3 75.2 C 37.099999999999994 75.2 38.5 73.8 38.5 72 C 38.5 70.2 37.1 68.8 35.3 68.8 z M 36.2 83.9 C 35.1 83.9 34.300000000000004 84.80000000000001 34.300000000000004 85.80000000000001 C 34.300000000000004 86.80000000000001 35.2 87.70000000000002 36.2 87.70000000000002 C 37.300000000000004 87.70000000000002 38.1 86.80000000000001 38.1 85.80000000000001 C 38.1 84.80000000000001 37.2 83.9 36.2 83.9 z M 28.2 77.1 C 26.4 77.1 25 78.5 25 80.3 C 25 82.1 26.4 83.5 28.2 83.5 C 30 83.5 31.4 82.1 31.4 80.3 C 31.4 78.5 30 77.1 28.2 77.1 z M 41 27.5 C 41 28.2 41.6 28.8 42.3 28.8 C 43 28.8 43.599999999999994 28.2 43.599999999999994 27.5 C 43.599999999999994 26.8 42.99999999999999 26.2 42.3 26.2 C 41.5 26.2 41 26.8 41 27.5 z M 48.3 17.9 C 48.3 14.799999999999999 45.8 12.299999999999999 42.699999999999996 12.299999999999999 C 39.599999999999994 12.299999999999999 37.099999999999994 14.799999999999999 37.099999999999994 17.9 C 37.099999999999994 21 39.599999999999994 23.5 42.699999999999996 23.5 C 45.8 23.6 48.3 21.1 48.3 17.9 z M 42.2 86.4 C 41.5 86.4 40.900000000000006 87 40.900000000000006 87.7 C 40.900000000000006 88.4 41.50000000000001 89 42.2 89 C 42.900000000000006 89 43.5 88.4 43.5 87.7 C 43.5 87 42.9 86.4 42.2 86.4 z M 44.8 74.5 C 42.3 74.5 40.199999999999996 76.6 40.199999999999996 79.1 C 40.199999999999996 81.6 42.3 83.69999999999999 44.8 83.69999999999999 C 47.3 83.69999999999999 49.4 81.6 49.4 79.1 C 49.4 76.6 47.3 74.5 44.8 74.5 z" stroke-linecap="round"></path></g></svg><style>@media (prefers-color-scheme: light) { :root { filter: none; } }
@media (prefers-color-scheme: dark) { :root { filter: none; } }
</style></svg>