<svg width="44" height="44" viewBox="0 0 44 44" fill="none" xmlns="http://www.w3.org/2000/svg">
<path fill-rule="evenodd" clip-rule="evenodd" d="M19.8039 9.94364C20.0384 9.06094 20.1131 8.08314 19.4202 6.68307C19.8573 5.83959 19.708 4.73269 18.8338 3.82205C18.0343 2.97975 15.8809 2.52048 14.8254 2.34064C19.4629 6.29907 19.0365 9.18258 18.706 10.1362C18.5141 10.1765 18.3222 10.2202 18.1303 10.2675C15.4971 9.5653 14.1431 8.75658 12.448 7.26386C12.7785 6.41122 12.5439 5.36242 11.6591 4.5359C10.8595 3.79753 8.91936 3.46204 7.79999 3.32569C8.39699 4.45167 11.1794 8.84644 16.1899 10.8898C10.2625 13.215 6.06221 18.9847 6.06221 25.7268C6.06221 34.5204 13.2049 41.6594 22 41.6594C30.7951 41.6594 37.9377 34.5204 37.9377 25.7268C37.9377 16.9331 30.7951 9.79375 22 9.79375C21.2537 9.79375 20.5288 9.84493 19.8039 9.94364ZM17.0642 14.016C12.1176 17.5386 11.2754 24.867 15.1986 30.3713C19.111 35.8755 26.3176 37.4845 31.2642 33.962C36.2108 30.4396 37.0529 23.1111 33.1298 17.6069C29.2173 12.1025 22.0108 10.4936 17.0642 14.016ZM29.921 19.1172C31.2642 19.1172 32.3517 20.2086 32.3517 21.5532C32.3517 22.8976 31.2642 23.989 29.921 23.989C28.5777 23.989 27.4796 22.8976 27.4796 21.5532C27.4796 20.2086 28.5777 19.1172 29.921 19.1172ZM23.0981 19.1172C24.4414 19.1172 25.5395 20.2086 25.5395 21.5532C25.5395 22.8976 24.4414 23.989 23.0981 23.989C21.7549 23.989 20.6674 22.8976 20.6674 21.5532C20.6674 20.2086 21.7549 19.1172 23.0981 19.1172ZM22.8422 19.9737C22.3518 20.3261 22.3199 21.1294 22.7677 21.7664C23.2261 22.4032 23.9936 22.6342 24.484 22.2817C24.9851 21.9292 25.0171 21.1259 24.5694 20.489C24.111 19.852 23.3433 19.6211 22.8422 19.9737ZM29.6651 19.9737C29.164 20.3261 29.1321 21.1294 29.5905 21.7664C30.0383 22.4032 30.8058 22.6342 31.3069 22.2817C31.7973 21.9292 31.8292 21.1259 31.3814 20.489C30.923 19.852 30.1555 19.6211 29.6651 19.9737ZM7.06436 3.82386C7.25625 4.8683 7.73606 7.03178 8.58892 7.82696C9.32451 8.5117 10.1774 8.7392 10.9237 8.573C8.8235 6.68541 7.54409 4.69602 7.06436 3.82386ZM14.3351 3.0822C14.4737 4.20082 14.8361 6.13884 15.5823 6.9224C16.2646 7.63678 17.0855 7.91843 17.8211 7.81385C17.4906 6.63104 16.5738 5.0185 14.3351 3.0822Z" fill="#F68C31"/>
</svg>
