<?xml version="1.0" encoding="UTF-8" standalone="no"?>
<!DOCTYPE svg PUBLIC "-//W3C//DTD SVG 1.1//EN" "http://www.w3.org/Graphics/SVG/1.1/DTD/svg11.dtd">
<svg width="100%" height="100%" viewBox="0 0 913 330" version="1.1" xmlns="http://www.w3.org/2000/svg" xmlns:xlink="http://www.w3.org/1999/xlink" xml:space="preserve" xmlns:serif="http://www.serif.com/" style="fill-rule:evenodd;clip-rule:evenodd;stroke-linejoin:round;stroke-miterlimit:2;">
    <g transform="matrix(1,0,0,1,-3743,-111)">
        <g transform="matrix(1,0,0,2,-21528.3,0)">
            <g transform="matrix(1,0,0,0.5,0,0)">
                <g transform="matrix(-0.891363,0,0,0.891363,45520,-471.29)">
                    <path d="M22586.9,725.519C22584.7,717.239 22584,708.067 22590.5,694.934C22586.4,687.022 22587.8,676.639 22596,668.097C22603.5,660.196 22623.7,655.888 22633.6,654.201C22590.1,691.332 22594.1,718.38 22597.2,727.325C22599,727.703 22600.8,728.113 22602.6,728.557C22627.3,721.97 22640,714.384 22655.9,700.382C22652.8,692.384 22655,682.546 22663.3,674.793C22670.8,667.867 22689,664.72 22699.5,663.441C22693.9,674.003 22667.8,715.227 22620.8,734.394C22676.4,756.205 22715.8,810.326 22715.8,873.569C22715.8,956.055 22648.8,1023.02 22566.3,1023.02C22483.8,1023.02 22416.8,956.055 22416.8,873.569C22416.8,791.082 22483.8,724.113 22566.3,724.113C22573.3,724.113 22580.1,724.593 22586.9,725.519ZM22612.6,763.719C22659,796.761 22666.9,865.504 22630.1,917.135C22593.4,968.766 22525.8,983.859 22479.4,950.817C22433,917.776 22425.1,849.033 22461.9,797.402C22498.6,745.77 22566.2,730.678 22612.6,763.719ZM22492,811.569C22479.4,811.569 22469.2,821.807 22469.2,834.419C22469.2,847.03 22479.4,857.268 22492,857.268C22504.6,857.268 22514.9,847.03 22514.9,834.419C22514.9,821.807 22504.6,811.569 22492,811.569ZM22556,811.569C22543.4,811.569 22533.1,821.807 22533.1,834.419C22533.1,847.03 22543.4,857.268 22556,857.268C22568.6,857.268 22578.8,847.03 22578.8,834.419C22578.8,821.807 22568.6,811.569 22556,811.569ZM22558.4,819.603C22563,822.909 22563.3,830.444 22559.1,836.419C22554.8,842.393 22547.6,844.559 22543,841.253C22538.3,837.946 22538,830.411 22542.2,824.437C22546.5,818.462 22553.7,816.296 22558.4,819.603ZM22494.4,819.603C22499.1,822.909 22499.4,830.444 22495.1,836.419C22490.9,842.393 22483.7,844.559 22479,841.253C22474.4,837.946 22474.1,830.411 22478.3,824.437C22482.6,818.462 22489.8,816.296 22494.4,819.603ZM22706.4,668.114C22704.6,677.911 22700.1,698.205 22692.1,705.664C22685.2,712.087 22677.2,714.221 22670.2,712.662C22689.9,694.956 22701.9,676.295 22706.4,668.114ZM22638.2,661.157C22636.9,671.65 22633.5,689.829 22626.5,697.179C22620.1,703.88 22612.4,706.522 22605.5,705.541C22608.6,694.446 22617.2,679.32 22638.2,661.157Z" style="fill:rgb(246,140,49);"/>
                </g>
                <g transform="matrix(3.26998,0,0,3.26998,-47633.6,-3127.57)">
                    <text x="22385.2px" y="1078.21px" style="font-family:'HvDTrial_BoubaRound-Medium', 'HvDTrial Bouba Round', sans-serif;font-weight:500;font-size:54.262px;fill:rgb(246,140,49);">O</text>
                    <text x="22425.5px" y="1078.21px" style="font-family:'HvDTrial_BoubaRound-Medium', 'HvDTrial Bouba Round', sans-serif;font-weight:500;font-size:54.262px;fill:rgb(246,140,49);">C</text>
                    <text x="22463.4px" y="1078.21px" style="font-family:'HvDTrial_BoubaRound-Medium', 'HvDTrial Bouba Round', sans-serif;font-weight:500;font-size:54.262px;fill:rgb(246,140,49);">A</text>
                    <text x="22501.7px" y="1078.21px" style="font-family:'HvDTrial_BoubaRound-Medium', 'HvDTrial Bouba Round', sans-serif;font-weight:500;font-size:54.262px;fill:rgb(246,140,49);">D</text>
                    <text x="22540.3px" y="1078.21px" style="font-family:'HvDTrial_BoubaRound-Medium', 'HvDTrial Bouba Round', sans-serif;font-weight:500;font-size:54.262px;fill:rgb(246,140,49);">A</text>
                </g>
            </g>
        </g>
    </g>
</svg>
