<svg width="667" height="667" viewBox="0 0 667 667" fill="none" xmlns="http://www.w3.org/2000/svg">
<rect width="667" height="667" rx="92" fill="black"/>
<rect x="117.333" y="155.333" width="450" height="364" rx="92" fill="#D9D9D9"/>
<path fill-rule="evenodd" clip-rule="evenodd" d="M666.667 333.333C666.667 517.427 517.427 666.667 333.333 666.667C280.01 666.667 229.612 654.147 184.918 631.883C173.04 625.97 159.464 624 146.646 627.43L72.445 647.283C40.2337 655.9 10.765 626.433 19.3837 594.223L39.2373 520.02C42.667 507.203 40.698 493.627 34.782 481.75C12.5207 437.053 0 386.657 0 333.333C0 149.238 149.238 0 333.333 0C517.427 0 666.667 149.238 666.667 333.333ZM333.333 175C347.14 175 358.333 186.193 358.333 200V466.667C358.333 480.473 347.14 491.667 333.333 491.667C319.527 491.667 308.333 480.473 308.333 466.667V200C308.333 186.193 319.527 175 333.333 175ZM225 266.667C225 252.86 213.807 241.667 200 241.667C186.193 241.667 175 252.86 175 266.667V400C175 413.807 186.193 425 200 425C213.807 425 225 413.807 225 400V266.667ZM466.667 241.667C480.473 241.667 491.667 252.86 491.667 266.667V400C491.667 413.807 480.473 425 466.667 425C452.86 425 441.667 413.807 441.667 400V266.667C441.667 252.86 452.86 241.667 466.667 241.667Z" fill="black"/>
</svg>
