<svg width="668" height="668" viewBox="0 0 668 668" fill="none" xmlns="http://www.w3.org/2000/svg">
<rect x="118" y="156" width="450" height="364" fill="#D9D9D9"/>
<path fill-rule="evenodd" clip-rule="evenodd" d="M667.334 334C667.334 518.093 518.094 667.333 334 667.333C280.677 667.333 230.279 654.813 185.585 632.55C173.707 626.637 160.131 624.667 147.313 628.097L73.112 647.95C40.9007 656.567 11.432 627.1 20.0507 594.89L39.9043 520.687C43.334 507.87 41.365 494.293 35.449 482.417C13.1877 437.72 0.666992 387.323 0.666992 334C0.666992 149.905 149.905 0.666626 334 0.666626C518.094 0.666626 667.334 149.905 667.334 334ZM334 175.667C347.807 175.667 359 186.86 359 200.667V467.333C359 481.14 347.807 492.333 334 492.333C320.194 492.333 309 481.14 309 467.333V200.667C309 186.86 320.194 175.667 334 175.667ZM225.667 267.333C225.667 253.526 214.474 242.333 200.667 242.333C186.86 242.333 175.667 253.526 175.667 267.333V400.667C175.667 414.473 186.86 425.667 200.667 425.667C214.474 425.667 225.667 414.473 225.667 400.667V267.333ZM467.334 242.333C481.14 242.333 492.334 253.526 492.334 267.333V400.667C492.334 414.473 481.14 425.667 467.334 425.667C453.527 425.667 442.334 414.473 442.334 400.667V267.333C442.334 253.526 453.527 242.333 467.334 242.333Z" fill="black"/>
</svg>
