<svg width="216" height="217" viewBox="0 0 216 217" fill="none" xmlns="http://www.w3.org/2000/svg">
<path d="M151.436 2.22363C151.436 2.22363 68.0588 2.22363 58.3761 2.22363C48.6934 2.22363 39.7513 10.829 39.7513 19.1221C39.7513 29.9403 39.7513 191.934 39.7513 200.102C39.7513 208.27 47.237 216.838 58.3655 216.838C69.494 216.838 174.315 216.838 184.275 216.838C194.236 216.838 202.751 209.62 202.751 200.102C202.751 190.584 202.751 54.8928 202.751 54.8928L151.436 2.22363Z" fill="#D3D8DE"/>
<path d="M151.439 2.21973L202.694 54.8836H160.746C160.746 54.8836 151.439 54.293 151.439 45.5992V2.21973Z" fill="#A7B2BE"/>
<path opacity="0.4" d="M39.7515 110.726H169.066C173.485 110.726 177.066 114.308 177.066 118.726V180.788C177.066 185.206 173.485 188.788 169.066 188.788H39.7515V110.726Z" fill="#A7B2BE"/>
<rect x="13.0889" y="110.726" width="163.978" height="71" rx="8" fill="#9C1F31"/>
<path d="M59.8504 128.456C64.9104 128.456 68.5954 129.556 70.9054 131.756C73.252 133.92 74.4254 136.908 74.4254 140.721C74.4254 142.445 74.1687 144.095 73.6554 145.671C73.142 147.211 72.2804 148.605 71.0704 149.851C69.897 151.061 68.3387 152.015 66.3954 152.711C64.452 153.408 62.0504 153.756 59.1904 153.756H55.6154V167.726H47.3104V128.456H59.8504ZM59.4104 135.276H55.6154V146.936H58.3654C59.942 146.936 61.2987 146.735 62.4354 146.331C63.572 145.928 64.452 145.286 65.0754 144.406C65.6987 143.526 66.0104 142.39 66.0104 140.996C66.0104 139.053 65.4787 137.623 64.4154 136.706C63.352 135.753 61.6837 135.276 59.4104 135.276ZM114.406 147.706C114.406 152.106 113.563 155.791 111.876 158.761C110.19 161.731 107.733 163.968 104.506 165.471C101.316 166.975 97.4665 167.726 92.9565 167.726H81.8465V128.456H94.1665C98.2732 128.456 101.83 129.19 104.836 130.656C107.88 132.123 110.226 134.286 111.876 137.146C113.563 139.97 114.406 143.49 114.406 147.706ZM105.771 147.926C105.771 145.03 105.35 142.646 104.506 140.776C103.663 138.906 102.398 137.531 100.711 136.651C99.0615 135.735 97.0265 135.276 94.6065 135.276H90.1515V160.851H93.7265C97.7965 160.851 100.821 159.77 102.801 157.606C104.781 155.443 105.771 152.216 105.771 147.926ZM130.754 167.726H122.559V128.456H145.054V135.276H130.754V145.396H144.064V152.216H130.754V167.726Z" fill="white"/>
</svg>
