<svg width="216" height="217" viewBox="0 0 216 217" fill="none" xmlns="http://www.w3.org/2000/svg">
<path d="M151.436 1.50146C151.436 1.50146 68.0588 1.50146 58.3761 1.50146C48.6934 1.50146 39.7513 10.1068 39.7513 18.4C39.7513 29.2181 39.7513 191.212 39.7513 199.38C39.7513 207.548 47.237 216.116 58.3655 216.116C69.494 216.116 174.315 216.116 184.275 216.116C194.236 216.116 202.751 208.898 202.751 199.38C202.751 189.862 202.751 54.1706 202.751 54.1706L151.436 1.50146Z" fill="#D3D8DE"/>
<path d="M151.424 1.49756L202.679 54.1615H160.731C160.731 54.1615 151.424 53.5708 151.424 44.8771V1.49756Z" fill="#A7B2BE"/>
<path opacity="0.4" d="M39.7515 110.004H169.066C173.485 110.004 177.066 113.586 177.066 118.004V180.065C177.066 184.484 173.485 188.065 169.066 188.065H39.7515V110.004Z" fill="#A7B2BE"/>
<rect x="13.0889" y="110.004" width="163.978" height="71" rx="8" fill="#AA6009"/>
<path d="M64.9598 167.004H56.6548V134.664H45.9848V127.734H75.6298V134.664H64.9598V167.004ZM113.42 167.004H103.905L94.7754 152.154L85.6454 167.004H76.7354L89.7704 146.764L77.5604 127.734H86.7454L95.2154 141.869L103.52 127.734H112.485L100.165 147.204L113.42 167.004ZM133.495 167.004H125.19V134.664H114.52V127.734H144.165V134.664H133.495V167.004Z" fill="white"/>
</svg>
