<svg width="216" height="217" viewBox="0 0 216 217" fill="none" xmlns="http://www.w3.org/2000/svg">
<path d="M151.436 1.50146C151.436 1.50146 68.0588 1.50146 58.3761 1.50146C48.6934 1.50146 39.7513 10.1068 39.7513 18.4C39.7513 29.2181 39.7513 191.212 39.7513 199.38C39.7513 207.548 47.237 216.116 58.3655 216.116C69.494 216.116 174.315 216.116 184.275 216.116C194.236 216.116 202.751 208.898 202.751 199.38C202.751 189.862 202.751 54.1706 202.751 54.1706L151.436 1.50146Z" fill="#D3D8DE"/>
<path d="M151.424 1.49756L202.747 54.1615H160.731C160.731 54.1615 151.424 53.5708 151.424 44.8771V1.49756Z" fill="#A7B2BE"/>
<path d="M110.407 120.644C110.407 118.334 110.722 116.269 111.352 114.449C111.982 112.629 112.997 110.914 114.397 109.304C115.867 107.694 117.792 106.049 120.172 104.369C122.272 102.829 123.952 101.464 125.212 100.274C126.542 99.0838 127.487 97.8938 128.047 96.7038C128.677 95.5138 128.992 94.1838 128.992 92.7138C128.992 90.4738 128.152 88.7938 126.472 87.6738C124.862 86.4838 122.587 85.8888 119.647 85.8888C116.707 85.8888 113.802 86.3438 110.932 87.2538C108.062 88.1638 105.122 89.3888 102.112 90.9288L96.5467 79.6938C99.9767 77.8038 103.687 76.2638 107.677 75.0738C111.667 73.8838 116.042 73.2888 120.802 73.2888C128.082 73.2888 133.717 75.0388 137.707 78.5388C141.767 82.0388 143.797 86.4838 143.797 91.8738C143.797 94.7438 143.342 97.2288 142.432 99.3288C141.522 101.429 140.157 103.389 138.337 105.209C136.517 106.959 134.242 108.849 131.512 110.879C129.482 112.349 127.907 113.609 126.787 114.659C125.667 115.709 124.897 116.724 124.477 117.704C124.127 118.684 123.952 119.909 123.952 121.379V124.424H110.407V120.644ZM108.727 141.959C108.727 138.739 109.602 136.499 111.352 135.239C113.102 133.909 115.237 133.244 117.757 133.244C120.207 133.244 122.307 133.909 124.057 135.239C125.807 136.499 126.682 138.739 126.682 141.959C126.682 145.039 125.807 147.279 124.057 148.679C122.307 150.009 120.207 150.674 117.757 150.674C115.237 150.674 113.102 150.009 111.352 148.679C109.602 147.279 108.727 145.039 108.727 141.959Z" fill="#646D78"/>
</svg>
