<svg width="971" height="185" viewBox="0 0 971 185" fill="none" xmlns="http://www.w3.org/2000/svg">
<path d="M102.033 185C159.897 185 203.846 148.44 203.846 92.5C203.846 36.7798 159.897 0 102.033 0C43.7286 0 0 36.7798 0 92.5C0 148.44 43.7286 185 102.033 185ZM102.033 180.815C57.2006 180.815 32.686 138.97 32.686 92.5C32.686 46.25 57.2006 4.18452 102.033 4.18452C146.425 4.18452 171.16 46.25 171.16 92.5C171.16 138.97 146.425 180.815 102.033 180.815Z" fill="black"/>
<path d="M335.565 0C319.222 0 307.959 4.62501 301.333 19.1607C294.266 13.6548 286.094 8.80953 274.168 8.80953C251.421 8.80953 233.09 21.8036 233.09 67.3929V75.3214H211.888V79.506H233.09V135.226C233.09 149.762 233.09 159.232 230.881 180.595H261.359C259.371 159.232 259.371 149.762 259.371 135.226V79.506H294.928V135.226C294.928 149.762 294.928 159.232 292.72 180.595H323.197C321.21 159.232 321.21 149.762 321.21 135.226V79.506H353.675V75.3214H321.21L320.989 64.5298C307.296 22.9048 312.376 4.18452 331.148 4.18452C345.062 4.18452 350.362 16.5179 360.08 21.5833C370.901 27.0893 377.527 20.0417 377.527 10.7917C363.834 5.06548 351.025 0 335.565 0ZM294.928 75.3214H259.371L259.15 68.2738C247.445 30.3929 258.488 12.9941 276.156 12.9941C285.432 12.9941 292.941 17.8393 299.787 23.5655C296.474 33.0357 294.928 46.0298 294.928 63.6488V75.3214Z" fill="black"/>
<path d="M410.491 185C441.189 185 458.636 167.601 466.587 140.292H462.833C455.103 165.179 438.981 177.952 418.662 177.952C390.614 177.952 376.48 153.946 376.48 125.976C376.48 122.452 376.7 118.929 377.363 115.625H461.066C460.845 92.0595 441.631 70.9167 408.282 70.9167C376.7 70.9167 347.769 91.8393 347.769 127.958C347.769 164.298 376.038 185 410.491 185ZM377.584 111.44C380.897 87.4345 391.939 75.1012 407.84 75.1012C425.509 75.1012 433.238 90.2976 433.238 111.44H377.584Z" fill="black"/>
<path d="M565.653 75.3214C537.384 70.256 523.691 85.8929 506.906 105.274C507.127 96.2441 507.569 87.2143 508.894 75.3214H478.416C480.625 93.1607 480.625 104.173 480.625 118.708V137.429C480.625 151.964 480.625 162.756 478.416 180.595H508.894C506.906 162.756 506.906 151.964 506.906 137.429V118.708V111.44C528.108 88.756 536.059 87.6548 547.543 91.3988C561.015 96.0238 568.303 87.6548 565.653 75.3214Z" fill="black"/>
<path d="M748.842 75.3214C739.125 74.2202 730.291 77.9643 733.603 86.5536C736.254 93.8214 747.075 99.3274 740.45 114.304L714.389 173.988L679.274 93.6012C676.182 86.3333 674.415 81.9286 673.311 75.3214H639.962C644.379 82.1488 647.25 86.7738 650.342 94.0417L666.465 131.262L647.913 173.988L612.798 93.6012C609.485 86.3333 607.939 81.9286 606.614 75.3214H573.486C577.903 82.1488 580.553 86.7738 583.866 94.0417L621.19 180.595H652.551C651.888 175.089 653.655 171.345 656.526 164.518L668.673 136.548L687.666 180.595H719.248C718.586 175.089 720.131 171.345 723.003 164.518L747.517 109.018C753.038 96.2441 751.934 84.3512 748.842 75.3214Z" fill="black"/>
<path d="M820.317 185C851.015 185 868.463 167.601 876.413 140.292H872.659C864.929 165.179 848.807 177.952 828.489 177.952C800.44 177.952 786.306 153.946 786.306 125.976C786.306 122.452 786.527 118.929 787.189 115.625H870.892C870.671 92.0595 851.457 70.9167 818.109 70.9167C786.527 70.9167 757.595 91.8393 757.595 127.958C757.595 164.298 785.864 185 820.317 185ZM787.41 111.44C790.723 87.4345 801.766 75.1012 817.667 75.1012C835.335 75.1012 843.065 90.2976 843.065 111.44H787.41Z" fill="black"/>
<path d="M920.014 180.595C918.027 161.655 918.027 149.762 918.027 135.226V49.7738C918.027 35.2381 918.027 23.3452 920.014 4.40477H889.537C891.745 23.3452 891.745 35.2381 891.745 49.7738V135.226C891.745 149.762 891.745 161.655 889.537 180.595H920.014Z" fill="black"/>
<path d="M971 180.595C969.012 161.655 969.012 149.762 969.012 135.226V49.7738C969.012 35.2381 969.012 23.3452 971 4.40477H940.522C942.731 23.3452 942.731 35.2381 942.731 49.7738V135.226C942.731 149.762 942.731 161.655 940.522 180.595H971Z" fill="black"/>
</svg>
