<svg width="800" height="600" xmlns="http://www.w3.org/2000/svg">
    <rect width="100%" height="100%" fill="#f0f0f0"/>
    <circle cx="636.3502564102565" cy="184.10595384615385" r="3" fill="blue" title="L000001"/><circle cx="636.3502564102565" cy="184.10595384615385" r="3" fill="blue" title="L000002"/><circle cx="636.3502564102565" cy="184.10595384615385" r="3" fill="blue" title="L000003"/><circle cx="636.3502564102565" cy="184.10595384615385" r="3" fill="blue" title="L000004"/><circle cx="636.3502564102565" cy="184.10595384615385" r="3" fill="blue" title="L000005"/><circle cx="636.3502564102565" cy="184.10595384615385" r="3" fill="blue" title="L000006"/><circle cx="636.3502564102565" cy="184.10595384615385" r="3" fill="blue" title="L000007"/><circle cx="636.3502564102565" cy="184.10595384615385" r="3" fill="blue" title="L000008"/><circle cx="636.3502564102565" cy="184.10595384615385" r="3" fill="blue" title="L000009"/><circle cx="636.3502564102565" cy="184.10595384615385" r="3" fill="blue" title="L000010"/><circle cx="636.3502564102565" cy="184.10595384615385" r="3" fill="blue" title="L000011"/><circle cx="636.3502564102565" cy="184.10595384615385" r="3" fill="blue" title="L000012"/><circle cx="636.3502564102565" cy="184.10595384615385" r="3" fill="blue" title="L000013"/><circle cx="636.3502564102565" cy="184.10595384615385" r="3" fill="blue" title="L000014"/><circle cx="636.3502564102565" cy="184.10595384615385" r="3" fill="blue" title="L000015"/><circle cx="636.3502564102565" cy="184.10595384615385" r="3" fill="blue" title="L000016"/><circle cx="636.3502564102565" cy="184.10595384615385" r="3" fill="blue" title="L000017"/><circle cx="636.3502564102565" cy="184.10595384615385" r="3" fill="blue" title="L000018"/><circle cx="636.3502564102565" cy="184.10595384615385" r="3" fill="blue" title="L000019"/><circle cx="636.3502564102565" cy="184.10595384615385" r="3" fill="blue" title="L000020"/><circle cx="636.3502564102565" cy="184.10595384615385" r="3" fill="blue" title="L000021"/><circle cx="636.3502564102565" cy="184.10595384615385" r="3" fill="blue" title="L000022"/><circle cx="636.3502564102565" cy="184.10595384615385" r="3" fill="blue" title="L000023"/><circle cx="636.3502564102565" cy="184.10595384615385" r="3" fill="blue" title="L000024"/><circle cx="636.3502564102565" cy="184.10595384615385" r="3" fill="blue" title="L000025"/><circle cx="636.3502564102565" cy="184.10595384615385" r="3" fill="blue" title="L000026"/><circle cx="636.3502564102565" cy="184.10595384615385" r="3" fill="blue" title="L000027"/><circle cx="636.3502564102565" cy="184.10595384615385" r="3" fill="blue" title="L000028"/><circle cx="636.3502564102565" cy="184.10595384615385" r="3" fill="blue" title="L000029"/><circle cx="636.3502564102565" cy="184.10595384615385" r="3" fill="blue" title="L000030"/>
  </svg>